<svg xmlns="http://www.w3.org/2000/svg" width="960" height="360" viewBox="0 0 960 360" role="img"><style>.title{font:700 24px Arial,sans-serif;fill:#0f172a;}.subtitle{font:400 13px Arial,sans-serif;fill:#475569;}.label{font:600 13px Arial,sans-serif;fill:#0f172a;}.tick{font:400 12px Arial,sans-serif;fill:#64748b;}.value{font:700 12px Arial,sans-serif;fill:#0f172a;}.foot{font:400 11px Arial,sans-serif;fill:#64748b;}</style><rect x="0" y="0" width="960" height="360" fill="#f8fafc" /><text x="36" y="42" class="title">Latency, Token, and Cost Profile</text><text x="36" y="64" class="subtitle">Values are computed from metrics_summary.json and saved by this notebook.</text><text x="177.00" y="86" class="label" text-anchor="middle">Average latency (s)</text><line x1="42" y1="256.00" x2="312" y2="256.00" stroke="#e2e8f0" stroke-width="1" /><line x1="42" y1="216.00" x2="312" y2="216.00" stroke="#e2e8f0" stroke-width="1" /><line x1="42" y1="176.00" x2="312" y2="176.00" stroke="#e2e8f0" stroke-width="1" /><line x1="42" y1="136.00" x2="312" y2="136.00" stroke="#e2e8f0" stroke-width="1" /><line x1="42" y1="96.00" x2="312" y2="96.00" stroke="#e2e8f0" stroke-width="1" /><rect x="64" y="121.60" width="44" height="134.40" fill="#0f766e" rx="2" /><text x="86.00" y="113.60" class="value" text-anchor="middle">2.23</text><text x="86.00" y="280" class="tick" text-anchor="middle">LitSpace</text><text x="86.00" y="295" class="tick" text-anchor="middle">RAG</text><rect x="142" y="133.54" width="44" height="122.46" fill="#c2410c" rx="2" /><text x="164.00" y="125.54" class="value" text-anchor="middle">2.04</text><text x="164.00" y="280" class="tick" text-anchor="middle">Zero-shot</text><rect x="220" y="130.55" width="44" height="125.45" fill="#1d4ed8" rx="2" /><text x="242.00" y="122.55" class="value" text-anchor="middle">2.08</text><text x="242.00" y="280" class="tick" text-anchor="middle">Summary</text><text x="242.00" y="295" class="tick" text-anchor="middle">few-shot</text><text x="477.00" y="86" class="label" text-anchor="middle">Average tokens / answer</text><line x1="342" y1="256.00" x2="612" y2="256.00" stroke="#e2e8f0" stroke-width="1" /><line x1="342" y1="216.00" x2="612" y2="216.00" stroke="#e2e8f0" stroke-width="1" /><line x1="342" y1="176.00" x2="612" y2="176.00" stroke="#e2e8f0" stroke-width="1" /><line x1="342" y1="136.00" x2="612" y2="136.00" stroke="#e2e8f0" stroke-width="1" /><line x1="342" y1="96.00" x2="612" y2="96.00" stroke="#e2e8f0" stroke-width="1" /><rect x="364" y="121.60" width="44" height="134.40" fill="#0f766e" rx="2" /><text x="386.00" y="113.60" class="value" text-anchor="middle">5498</text><text x="386.00" y="280" class="tick" text-anchor="middle">LitSpace</text><text x="386.00" y="295" class="tick" text-anchor="middle">RAG</text><rect x="442" y="250.06" width="44" height="5.94" fill="#c2410c" rx="2" /><text x="464.00" y="242.06" class="value" text-anchor="middle">243</text><text x="464.00" y="280" class="tick" text-anchor="middle">Zero-shot</text><rect x="520" y="238.83" width="44" height="17.17" fill="#1d4ed8" rx="2" /><text x="542.00" y="230.83" class="value" text-anchor="middle">702</text><text x="542.00" y="280" class="tick" text-anchor="middle">Summary</text><text x="542.00" y="295" class="tick" text-anchor="middle">few-shot</text><text x="777.00" y="86" class="label" text-anchor="middle">Average cost / answer</text><line x1="642" y1="256.00" x2="912" y2="256.00" stroke="#e2e8f0" stroke-width="1" /><line x1="642" y1="216.00" x2="912" y2="216.00" stroke="#e2e8f0" stroke-width="1" /><line x1="642" y1="176.00" x2="912" y2="176.00" stroke="#e2e8f0" stroke-width="1" /><line x1="642" y1="136.00" x2="912" y2="136.00" stroke="#e2e8f0" stroke-width="1" /><line x1="642" y1="96.00" x2="912" y2="96.00" stroke="#e2e8f0" stroke-width="1" /><rect x="664" y="121.60" width="44" height="134.40" fill="#0f766e" rx="2" /><text x="686.00" y="113.60" class="value" text-anchor="middle">$0.00508</text><text x="686.00" y="280" class="tick" text-anchor="middle">LitSpace</text><text x="686.00" y="295" class="tick" text-anchor="middle">RAG</text><rect x="742" y="242.04" width="44" height="13.96" fill="#c2410c" rx="2" /><text x="764.00" y="234.04" class="value" text-anchor="middle">$0.00053</text><text x="764.00" y="280" class="tick" text-anchor="middle">Zero-shot</text><rect x="820" y="234.86" width="44" height="21.14" fill="#1d4ed8" rx="2" /><text x="842.00" y="226.86" class="value" text-anchor="middle">$0.00080</text><text x="842.00" y="280" class="tick" text-anchor="middle">Summary</text><text x="842.00" y="295" class="tick" text-anchor="middle">few-shot</text><text x="36" y="332" class="foot">Token and cost values come from metrics_summary.json; LitSpace now records backend usage in the evaluation outputs.</text></svg>