<svg xmlns="http://www.w3.org/2000/svg" width="960" height="368" viewBox="0 0 960 368" role="img"><style>.title{font:700 24px Arial,sans-serif;fill:#0f172a;}.subtitle{font:400 13px Arial,sans-serif;fill:#475569;}.label{font:600 13px Arial,sans-serif;fill:#0f172a;}.tick{font:400 12px Arial,sans-serif;fill:#64748b;}.value{font:700 12px Arial,sans-serif;fill:#0f172a;}.foot{font:400 11px Arial,sans-serif;fill:#64748b;}</style><rect x="0" y="0" width="960" height="368" fill="#f8fafc" /><text x="36" y="42" class="title">LitSpace Retrieval Metrics</text><text x="36" y="64" class="subtitle">Paper-level retrieval is strong; exact supporting-section retrieval is weaker.</text><line x1="280.00" y1="80" x2="280.00" y2="298" stroke="#e2e8f0" stroke-width="1" /><text x="280.00" y="318" class="tick" text-anchor="middle">0.00</text><line x1="430.00" y1="80" x2="430.00" y2="298" stroke="#e2e8f0" stroke-width="1" /><text x="430.00" y="318" class="tick" text-anchor="middle">0.25</text><line x1="580.00" y1="80" x2="580.00" y2="298" stroke="#e2e8f0" stroke-width="1" /><text x="580.00" y="318" class="tick" text-anchor="middle">0.50</text><line x1="730.00" y1="80" x2="730.00" y2="298" stroke="#e2e8f0" stroke-width="1" /><text x="730.00" y="318" class="tick" text-anchor="middle">0.75</text><line x1="880.00" y1="80" x2="880.00" y2="298" stroke="#e2e8f0" stroke-width="1" /><text x="880.00" y="318" class="tick" text-anchor="middle">1.00</text><text x="264" y="114" class="label" text-anchor="end">Paper hit@5</text><rect x="280" y="98" width="600" height="24" rx="8" fill="#e2e8f0" /><rect x="280" y="98" width="583.33" height="24" rx="8" fill="#0f766e" /><text x="873.33" y="114" class="value">0.97</text><text x="264" y="166" class="label" text-anchor="end">Paper recall@5</text><rect x="280" y="150" width="600" height="24" rx="8" fill="#e2e8f0" /><rect x="280" y="150" width="517.26" height="24" rx="8" fill="#0f766e" /><text x="807.26" y="166" class="value">0.86</text><text x="264" y="218" class="label" text-anchor="end">Section hit@5</text><rect x="280" y="202" width="600" height="24" rx="8" fill="#e2e8f0" /><rect x="280" y="202" width="383.33" height="24" rx="8" fill="#1d4ed8" /><text x="673.33" y="218" class="value">0.64</text><text x="264" y="270" class="label" text-anchor="end">Section recall@5</text><rect x="280" y="254" width="600" height="24" rx="8" fill="#e2e8f0" /><rect x="280" y="254" width="185.00" height="24" rx="8" fill="#1d4ed8" /><text x="475.00" y="270" class="value">0.31</text><text x="36" y="346" class="foot">All values are proportions between 0 and 1.</text></svg>