<svg xmlns="http://www.w3.org/2000/svg" width="960" height="316" viewBox="0 0 960 316" role="img"><style>.title{font:700 24px Arial,sans-serif;fill:#0f172a;}.subtitle{font:400 13px Arial,sans-serif;fill:#475569;}.label{font:600 13px Arial,sans-serif;fill:#0f172a;}.tick{font:400 12px Arial,sans-serif;fill:#64748b;}.value{font:700 12px Arial,sans-serif;fill:#0f172a;}.foot{font:400 11px Arial,sans-serif;fill:#64748b;}</style><rect x="0" y="0" width="960" height="316" fill="#f8fafc" /><text x="36" y="42" class="title">Overall Correctness Mean</text><text x="36" y="64" class="subtitle">Higher is better. Values come from evaluation/results/metrics_summary.json.</text><line x1="280.00" y1="80" x2="280.00" y2="246" stroke="#e2e8f0" stroke-width="1" /><text x="280.00" y="266" class="tick" text-anchor="middle">0.00</text><line x1="430.00" y1="80" x2="430.00" y2="246" stroke="#e2e8f0" stroke-width="1" /><text x="430.00" y="266" class="tick" text-anchor="middle">0.50</text><line x1="580.00" y1="80" x2="580.00" y2="246" stroke="#e2e8f0" stroke-width="1" /><text x="580.00" y="266" class="tick" text-anchor="middle">1.00</text><line x1="730.00" y1="80" x2="730.00" y2="246" stroke="#e2e8f0" stroke-width="1" /><text x="730.00" y="266" class="tick" text-anchor="middle">1.50</text><line x1="880.00" y1="80" x2="880.00" y2="246" stroke="#e2e8f0" stroke-width="1" /><text x="880.00" y="266" class="tick" text-anchor="middle">2.00</text><text x="264" y="114" class="label" text-anchor="end">LitSpace RAG</text><rect x="280" y="98" width="600" height="24" rx="8" fill="#e2e8f0" /><rect x="280" y="98" width="426.67" height="24" rx="8" fill="#0f766e" /><text x="716.67" y="114" class="value">1.42</text><text x="264" y="166" class="label" text-anchor="end">Summary few-shot</text><rect x="280" y="150" width="600" height="24" rx="8" fill="#e2e8f0" /><rect x="280" y="150" width="400.00" height="24" rx="8" fill="#1d4ed8" /><text x="690.00" y="166" class="value">1.33</text><text x="264" y="218" class="label" text-anchor="end">Zero-shot</text><rect x="280" y="202" width="600" height="24" rx="8" fill="#e2e8f0" /><rect x="280" y="202" width="100.00" height="24" rx="8" fill="#c2410c" /><text x="390.00" y="218" class="value">0.33</text><text x="36" y="294" class="foot">Judge score range: 0 to 2.</text></svg>